<svg width="560" height="160" viewBox="0 0 560 160" fill="none" xmlns="http://www.w3.org/2000/svg">
  <g stroke="#C9E88D" stroke-width="8" stroke-linecap="round" stroke-linejoin="round">
    <circle cx="82" cy="80" r="58"/>
    <path d="M30 42H83C104.539 42 122 59.4609 122 81C122 102.539 104.539 120 83 120C61.4609 120 44 102.539 44 81"/>
    <path d="M24 58H82C94.1503 58 104 67.8497 104 80C104 92.1503 94.1503 102 82 102C69.8497 102 60 92.1503 60 80"/>
    <path d="M20 74H67C74.732 74 81 80.268 81 88C81 95.732 74.732 102 67 102C59.268 102 53 95.732 53 88"/>
  </g>
  <text x="168" y="86" fill="#C9E88D" font-family="Arial, Helvetica, sans-serif" font-size="62" font-weight="700" letter-spacing="2">NEXTGYM</text>
  <text x="170" y="123" fill="#C9E88D" font-family="Arial, Helvetica, sans-serif" font-size="24" font-weight="400" letter-spacing="1.5">Treinos Fitness</text>
</svg>
