<svg xmlns="http://www.w3.org/2000/svg" viewBox="0 0 512 512" role="img" aria-labelledby="title">
  <title id="title">Icone de acessibilidade</title>
  <circle cx="256" cy="256" r="246" fill="#009900"/>
  <circle cx="354" cy="125" r="34" fill="#ffffff"/>
  <path fill="#ffffff" d="M224 118c15-18 29-20 47-8l71 47c17 11 20 31 7 47l-46 57h93c15 0 27 12 27 27v78c0 16-12 28-27 28s-27-12-27-28v-51h-95c-11 0-20-4-27-12l-45-51-36 21c40 14 69 52 69 97 0 56-46 102-103 102S129 425 129 369c0-31 14-59 36-78l17 41c-7 10-11 23-11 37 0 34 28 62 62 62s62-28 62-62-28-62-62-62c-12 0-24 4-34 10l-25-60 71-42-42-30-39 40c-11 11-28 11-39 1-11-11-11-28 0-39l48-49c14-14 32-18 51-20z"/>
</svg>
